<mxfile host="app.diagrams.net" agent="Mozilla/5.0 (Windows NT 10.0; Win64; x64) AppleWebKit/537.36 (KHTML, like Gecko) Chrome/138.0.0.0 Safari/537.36" version="28.0.5">
  <diagram name="Page-1" id="iwAsw85ld0rtPUS75imh">
    <mxGraphModel dx="1042" dy="527" grid="1" gridSize="10" guides="1" tooltips="1" connect="1" arrows="1" fold="1" page="1" pageScale="1" pageWidth="1000" pageHeight="1000" math="0" shadow="0">
      <root>
        <mxCell id="0" />
        <mxCell id="1" parent="0" />
        <mxCell id="oe1G1PaN5FAki_fNwKMK-1" value="" style="rounded=0;whiteSpace=wrap;html=1;strokeColor=none;fillColor=light-dark(#6B4C3B,#6B4C3B);" parent="1" vertex="1">
          <mxGeometry x="200" y="400" width="600" height="200" as="geometry" />
        </mxCell>
        <mxCell id="oe1G1PaN5FAki_fNwKMK-2" value="&lt;p style=&quot;&quot; data-pm-slice=&quot;1 1 []&quot;&gt;&lt;span style=&quot;color: light-dark(rgb(245, 240, 220), rgb(245, 240, 220)); font-family: &amp;quot;Comic Sans MS&amp;quot;; background-color: transparent;&quot;&gt;&lt;font style=&quot;font-size: 60px;&quot;&gt;Place Your Token!&lt;/font&gt;&lt;/span&gt;&lt;/p&gt;" style="rounded=0;whiteSpace=wrap;html=1;fillColor=none;strokeColor=none;align=center;" parent="1" vertex="1">
          <mxGeometry x="280" y="500" width="500" height="90" as="geometry" />
        </mxCell>
        <mxCell id="Y-TXC_74rQ3mTslFlgD3-2" value="&lt;font style=&quot;font-size: 35px;&quot; face=&quot;Comic Sans MS&quot;&gt;Restart&lt;/font&gt;" style="rounded=1;whiteSpace=wrap;html=1;fillColor=light-dark(#D97A2B,#D97A2B);fontColor=light-dark(#F5F0DC,#F5F0DC);strokeColor=light-dark(#F5F0DC,#F5F0DC);strokeWidth=3;arcSize=50;" parent="1" vertex="1">
          <mxGeometry x="540" y="420" width="240" height="80" as="geometry" />
        </mxCell>
        <mxCell id="Y-TXC_74rQ3mTslFlgD3-3" value="&lt;span style=&quot;font-family: &amp;quot;Comic Sans MS&amp;quot;; text-align: justify;&quot;&gt;&lt;font style=&quot;color: light-dark(rgb(245, 240, 220), rgb(245, 240, 220)); font-size: 60px;&quot;&gt;Player A,&amp;nbsp;&lt;/font&gt;&lt;/span&gt;" style="rounded=0;whiteSpace=wrap;html=1;fillColor=none;strokeColor=none;" parent="1" vertex="1">
          <mxGeometry x="220" y="415" width="280" height="75" as="geometry" />
        </mxCell>
        <mxCell id="q1jXNIJciqKomSPhTHGe-1" value="" style="shape=image;imageAspect=0;aspect=fixed;verticalLabelPosition=bottom;verticalAlign=top;image=data:image/png,iVBORw0KGgoAAAANSUhEUgAAADIAAAAyCAYAAAAeP4ixAAAAAXNSR0IArs4c6QAAB1h0RVh0bXhmaWxlACUzQ214ZmlsZSUyMGhvc3QlM0QlMjJhcHAuZGlhZ3JhbXMubmV0JTIyJTIwYWdlbnQlM0QlMjJNb3ppbGxhJTJGNS4wJTIwKFdpbmRvd3MlMjBOVCUyMDEwLjAlM0IlMjBXaW42NCUzQiUyMHg2NCklMjBBcHBsZVdlYktpdCUyRjUzNy4zNiUyMChLSFRNTCUyQyUyMGxpa2UlMjBHZWNrbyklMjBDaHJvbWUlMkYxMzguMC4wLjAlMjBTYWZhcmklMkY1MzcuMzYlMjIlMjB2ZXJzaW9uJTNEJTIyMjguMC41JTIyJTIwc2NhbGUlM0QlMjIxJTIyJTIwYm9yZGVyJTNEJTIyMCUyMiUzRSUwQSUyMCUyMCUzQ2RpYWdyYW0lMjBuYW1lJTNEJTIyUGFnZS0xJTIyJTIwaWQlM0QlMjJ4ZTFLeGxHNGNQY1VmYURyT0JZNiUyMiUzRSUwQSUyMCUyMCUyMCUyMCUzQ214R3JhcGhNb2RlbCUyMGR4JTNEJTIyMTA0MiUyMiUyMGR5JTNEJTIyNTI3JTIyJTIwZ3JpZCUzRCUyMjElMjIlMjBncmlkU2l6ZSUzRCUyMjEwJTIyJTIwZ3VpZGVzJTNEJTIyMSUyMiUyMHRvb2x0aXBzJTNEJTIyMSUyMiUyMGNvbm5lY3QlM0QlMjIxJTIyJTIwYXJyb3dzJTNEJTIyMSUyMiUyMGZvbGQlM0QlMjIxJTIyJTIwcGFnZSUzRCUyMjElMjIlMjBwYWdlU2NhbGUlM0QlMjIxJTIyJTIwcGFnZVdpZHRoJTNEJTIyMTAwMCUyMiUyMHBhZ2VIZWlnaHQlM0QlMjIxMDAwJTIyJTIwbWF0aCUzRCUyMjAlMjIlMjBzaGFkb3clM0QlMjIwJTIyJTNFJTBBJTIwJTIwJTIwJTIwJTIwJTIwJTNDcm9vdCUzRSUwQSUyMCUyMCUyMCUyMCUyMCUyMCUyMCUyMCUzQ214Q2VsbCUyMGlkJTNEJTIyMCUyMiUyMCUyRiUzRSUwQSUyMCUyMCUyMCUyMCUyMCUyMCUyMCUyMCUzQ214Q2VsbCUyMGlkJTNEJTIyMSUyMiUyMHBhcmVudCUzRCUyMjAlMjIlMjAlMkYlM0UlMEElMjAlMjAlMjAlMjAlMjAlMjAlMjAlMjAlM0NteENlbGwlMjBpZCUzRCUyMmotR2ZKR3d3MG5hRExaclk1eVhILTElMjIlMjB2YWx1ZSUzRCUyMiUyMiUyMHN0eWxlJTNEJTIyd2hpdGVTcGFjZSUzRHdyYXAlM0JodG1sJTNEMSUzQmFzcGVjdCUzRGZpeGVkJTNCc3Ryb2tlQ29sb3IlM0Rub25lJTNCZmlsbENvbG9yJTNEbm9uZSUzQiUyMiUyMHBhcmVudCUzRCUyMjElMjIlMjB2ZXJ0ZXglM0QlMjIxJTIyJTNFJTBBJTIwJTIwJTIwJTIwJTIwJTIwJTIwJTIwJTIwJTIwJTNDbXhHZW9tZXRyeSUyMHglM0QlMjI0NzUlMjIlMjB5JTNEJTIyNDc1JTIyJTIwd2lkdGglM0QlMjI1MCUyMiUyMGhlaWdodCUzRCUyMjUwJTIyJTIwYXMlM0QlMjJnZW9tZXRyeSUyMiUyMCUyRiUzRSUwQSUyMCUyMCUyMCUyMCUyMCUyMCUyMCUyMCUzQyUyRm14Q2VsbCUzRSUwQSUyMCUyMCUyMCUyMCUyMCUyMCUyMCUyMCUzQ214Q2VsbCUyMGlkJTNEJTIyai1HZkpHd3cwbmFETFpyWTV5WEgtMiUyMiUyMHZhbHVlJTNEJTIyJTIyJTIwc3R5bGUlM0QlMjJlbGxpcHNlJTNCd2hpdGVTcGFjZSUzRHdyYXAlM0JodG1sJTNEMSUzQmFzcGVjdCUzRGZpeGVkJTNCZmlsbENvbG9yJTNEbGlnaHQtZGFyayglMjMyQzNFNTAlMkMlMjMyQzNFNTApJTNCc3Ryb2tlQ29sb3IlM0RkZWZhdWx0JTNCc3Ryb2tlV2lkdGglM0Q1JTNCJTIyJTIwcGFyZW50JTNEJTIyMSUyMiUyMHZlcnRleCUzRCUyMjElMjIlM0UlMEElMjAlMjAlMjAlMjAlMjAlMjAlMjAlMjAlMjAlMjAlM0NteEdlb21ldHJ5JTIweCUzRCUyMjQ3OSUyMiUyMHklM0QlMjI0NzklMjIlMjB3aWR0aCUzRCUyMjQyJTIyJTIwaGVpZ2h0JTNEJTIyNDIlMjIlMjBhcyUzRCUyMmdlb21ldHJ5JTIyJTIwJTJGJTNFJTBBJTIwJTIwJTIwJTIwJTIwJTIwJTIwJTIwJTNDJTJGbXhDZWxsJTNFJTBBJTIwJTIwJTIwJTIwJTIwJTIwJTNDJTJGcm9vdCUzRSUwQSUyMCUyMCUyMCUyMCUzQyUyRm14R3JhcGhNb2RlbCUzRSUwQSUyMCUyMCUzQyUyRmRpYWdyYW0lM0UlMEElM0MlMkZteGZpbGUlM0UlMEHGbHVoAAADqElEQVRoQ92aXUhUQRTH/+dBewsjyih7CQyspI/twSgL0ooyC0uj7AMSKQXNitAEKQrBlKhMIQsx6MMiNSmzqFQok3xo+8BKSOglizQi6S19mJjlbszO3tl7d1035w7sy71nzpzfzDlnzp1ZgkMaOYQDYQVhjK0EwH9LAcwHEAcgBkA0gFEAIwAGAXwC8AZADxH1hGMyxw1iGL8HwDYAM0MwahjAXQA3xgMVMghjLA3AUQBrQzBe1aULwDkiag9WZ9AgjLF4ABUAtgc7WBDyLQBKiWjAbp+gQBhjBwDUGD5vd4xQ5XhMFRLRFTsKbIMwxqoBHAqkdHRsDN29brjffUT/wGd8+fodv0Z+gz+PjorCtJipmDtnFhLi58G1eAGSk1ye5xbtIhEVWQnZAmGM3QKwU6Wsr38ATfcfo/3pc4/RdhuHSFu3GllbNiAxgXusst0mol2BBCxBAkEMfhtCbUOjB2C8jQMV5GQjbnasSlVAmIAggdypue0JKqrrg1oBK1i+QqVFuchMX68SVbqZEsQI7MtmGqtqG3C9qc3KrpDf781KR3FBjqr/QbMEYApipNj3ZtnpRGUtWh92hmyk3Y4Zm1JwuqTATJxns0VyalaBNJvtExO9ErLVAVamhYgyRXk/EGPHfiAr5TFx6uwluxMaNrmTx/JVMbNZrADMQLjf+JQdPDtt3VcY1sC2S8oTwL1rNWbZrIuIUrx6fECMAvCFPMjx8vNhSbF2jZfleGo+U3bErPsqb6Epg3DfyRN78M0uO684VBvC1q+xrsps06wjonw+iAwyJJfikcpSVsSKLDZMRJ4d9B+ImVvxcmPFxt3/JTZkMB4rLx/dNKvNPO4lgnD/qRQVdHb34nCZzyOriZvQ9xfKS5CSnCSPUUJEVSKIX2EY6X3DahYU+4qnBhNB3ACWicr2F5Xh1dsPVvoj9n75koW4Wl0uj/eaiFwiiF+gp2bmYujHz4gZajVQ7Izp6Giul8U8AS+C/JFrK1fqjkkR6F7LecC7O+7IIKNENEUEYbJE4poMq0mK+Pu+Z61+YxJv3qeMMcesiGNixDFZyzH7iGN2dn747FPCa1lr8ezFGNO/+jVAHPM94udeHFC7L0RjVfT/ZjdA+L2H/qcoBoz+51oGCD8a1/+k0YDhlzp6n/0KFbHyckeb03gBRnnJo839iB0YLqPFjZUdN/PKTPo7RAFG/1tdAUb/e3bxq1/7fz7IRxja/xfF7BxI638HRfxgSzHgX1saHVEr4yXAAAAAAElFTkSuQmCC;" vertex="1" parent="1">
          <mxGeometry x="475" y="435" width="50" height="50" as="geometry" />
        </mxCell>
        <mxCell id="q1jXNIJciqKomSPhTHGe-3" value="" style="shape=image;imageAspect=0;aspect=fixed;verticalLabelPosition=bottom;verticalAlign=top;image=data:image/png,iVBORw0KGgoAAAANSUhEUgAAADIAAAAyCAYAAAAeP4ixAAAAAXNSR0IArs4c6QAAB1h0RVh0bXhmaWxlACUzQ214ZmlsZSUyMGhvc3QlM0QlMjJhcHAuZGlhZ3JhbXMubmV0JTIyJTIwYWdlbnQlM0QlMjJNb3ppbGxhJTJGNS4wJTIwKFdpbmRvd3MlMjBOVCUyMDEwLjAlM0IlMjBXaW42NCUzQiUyMHg2NCklMjBBcHBsZVdlYktpdCUyRjUzNy4zNiUyMChLSFRNTCUyQyUyMGxpa2UlMjBHZWNrbyklMjBDaHJvbWUlMkYxMzguMC4wLjAlMjBTYWZhcmklMkY1MzcuMzYlMjIlMjB2ZXJzaW9uJTNEJTIyMjguMC41JTIyJTIwc2NhbGUlM0QlMjIxJTIyJTIwYm9yZGVyJTNEJTIyMCUyMiUzRSUwQSUyMCUyMCUzQ2RpYWdyYW0lMjBuYW1lJTNEJTIyUGFnZS0xJTIyJTIwaWQlM0QlMjJ4ZTFLeGxHNGNQY1VmYURyT0JZNiUyMiUzRSUwQSUyMCUyMCUyMCUyMCUzQ214R3JhcGhNb2RlbCUyMGR4JTNEJTIyMTA0MiUyMiUyMGR5JTNEJTIyNTI3JTIyJTIwZ3JpZCUzRCUyMjElMjIlMjBncmlkU2l6ZSUzRCUyMjEwJTIyJTIwZ3VpZGVzJTNEJTIyMSUyMiUyMHRvb2x0aXBzJTNEJTIyMSUyMiUyMGNvbm5lY3QlM0QlMjIxJTIyJTIwYXJyb3dzJTNEJTIyMSUyMiUyMGZvbGQlM0QlMjIxJTIyJTIwcGFnZSUzRCUyMjElMjIlMjBwYWdlU2NhbGUlM0QlMjIxJTIyJTIwcGFnZVdpZHRoJTNEJTIyMTAwMCUyMiUyMHBhZ2VIZWlnaHQlM0QlMjIxMDAwJTIyJTIwbWF0aCUzRCUyMjAlMjIlMjBzaGFkb3clM0QlMjIwJTIyJTNFJTBBJTIwJTIwJTIwJTIwJTIwJTIwJTNDcm9vdCUzRSUwQSUyMCUyMCUyMCUyMCUyMCUyMCUyMCUyMCUzQ214Q2VsbCUyMGlkJTNEJTIyMCUyMiUyMCUyRiUzRSUwQSUyMCUyMCUyMCUyMCUyMCUyMCUyMCUyMCUzQ214Q2VsbCUyMGlkJTNEJTIyMSUyMiUyMHBhcmVudCUzRCUyMjAlMjIlMjAlMkYlM0UlMEElMjAlMjAlMjAlMjAlMjAlMjAlMjAlMjAlM0NteENlbGwlMjBpZCUzRCUyMmotR2ZKR3d3MG5hRExaclk1eVhILTElMjIlMjB2YWx1ZSUzRCUyMiUyMiUyMHN0eWxlJTNEJTIyd2hpdGVTcGFjZSUzRHdyYXAlM0JodG1sJTNEMSUzQmFzcGVjdCUzRGZpeGVkJTNCc3Ryb2tlQ29sb3IlM0Rub25lJTNCZmlsbENvbG9yJTNEbm9uZSUzQiUyMiUyMHBhcmVudCUzRCUyMjElMjIlMjB2ZXJ0ZXglM0QlMjIxJTIyJTNFJTBBJTIwJTIwJTIwJTIwJTIwJTIwJTIwJTIwJTIwJTIwJTNDbXhHZW9tZXRyeSUyMHglM0QlMjI0NzUlMjIlMjB5JTNEJTIyNDc1JTIyJTIwd2lkdGglM0QlMjI1MCUyMiUyMGhlaWdodCUzRCUyMjUwJTIyJTIwYXMlM0QlMjJnZW9tZXRyeSUyMiUyMCUyRiUzRSUwQSUyMCUyMCUyMCUyMCUyMCUyMCUyMCUyMCUzQyUyRm14Q2VsbCUzRSUwQSUyMCUyMCUyMCUyMCUyMCUyMCUyMCUyMCUzQ214Q2VsbCUyMGlkJTNEJTIyai1HZkpHd3cwbmFETFpyWTV5WEgtMiUyMiUyMHZhbHVlJTNEJTIyJTIyJTIwc3R5bGUlM0QlMjJlbGxpcHNlJTNCd2hpdGVTcGFjZSUzRHdyYXAlM0JodG1sJTNEMSUzQmFzcGVjdCUzRGZpeGVkJTNCZmlsbENvbG9yJTNEbGlnaHQtZGFyayglMjMyQzNFNTAlMkMlMjMyQzNFNTApJTNCc3Ryb2tlQ29sb3IlM0RkZWZhdWx0JTNCc3Ryb2tlV2lkdGglM0Q1JTNCJTIyJTIwcGFyZW50JTNEJTIyMSUyMiUyMHZlcnRleCUzRCUyMjElMjIlM0UlMEElMjAlMjAlMjAlMjAlMjAlMjAlMjAlMjAlMjAlMjAlM0NteEdlb21ldHJ5JTIweCUzRCUyMjQ3OSUyMiUyMHklM0QlMjI0NzklMjIlMjB3aWR0aCUzRCUyMjQyJTIyJTIwaGVpZ2h0JTNEJTIyNDIlMjIlMjBhcyUzRCUyMmdlb21ldHJ5JTIyJTIwJTJGJTNFJTBBJTIwJTIwJTIwJTIwJTIwJTIwJTIwJTIwJTNDJTJGbXhDZWxsJTNFJTBBJTIwJTIwJTIwJTIwJTIwJTIwJTNDJTJGcm9vdCUzRSUwQSUyMCUyMCUyMCUyMCUzQyUyRm14R3JhcGhNb2RlbCUzRSUwQSUyMCUyMCUzQyUyRmRpYWdyYW0lM0UlMEElM0MlMkZteGZpbGUlM0UlMEHGbHVoAAADqElEQVRoQ92aXUhUQRTH/+dBewsjyih7CQyspI/twSgL0ooyC0uj7AMSKQXNitAEKQrBlKhMIQsx6MMiNSmzqFQok3xo+8BKSOglizQi6S19mJjlbszO3tl7d1035w7sy71nzpzfzDlnzp1ZgkMaOYQDYQVhjK0EwH9LAcwHEAcgBkA0gFEAIwAGAXwC8AZADxH1hGMyxw1iGL8HwDYAM0MwahjAXQA3xgMVMghjLA3AUQBrQzBe1aULwDkiag9WZ9AgjLF4ABUAtgc7WBDyLQBKiWjAbp+gQBhjBwDUGD5vd4xQ5XhMFRLRFTsKbIMwxqoBHAqkdHRsDN29brjffUT/wGd8+fodv0Z+gz+PjorCtJipmDtnFhLi58G1eAGSk1ye5xbtIhEVWQnZAmGM3QKwU6Wsr38ATfcfo/3pc4/RdhuHSFu3GllbNiAxgXusst0mol2BBCxBAkEMfhtCbUOjB2C8jQMV5GQjbnasSlVAmIAggdypue0JKqrrg1oBK1i+QqVFuchMX68SVbqZEsQI7MtmGqtqG3C9qc3KrpDf781KR3FBjqr/QbMEYApipNj3ZtnpRGUtWh92hmyk3Y4Zm1JwuqTATJxns0VyalaBNJvtExO9ErLVAVamhYgyRXk/EGPHfiAr5TFx6uwluxMaNrmTx/JVMbNZrADMQLjf+JQdPDtt3VcY1sC2S8oTwL1rNWbZrIuIUrx6fECMAvCFPMjx8vNhSbF2jZfleGo+U3bErPsqb6Epg3DfyRN78M0uO684VBvC1q+xrsps06wjonw+iAwyJJfikcpSVsSKLDZMRJ4d9B+ImVvxcmPFxt3/JTZkMB4rLx/dNKvNPO4lgnD/qRQVdHb34nCZzyOriZvQ9xfKS5CSnCSPUUJEVSKIX2EY6X3DahYU+4qnBhNB3ACWicr2F5Xh1dsPVvoj9n75koW4Wl0uj/eaiFwiiF+gp2bmYujHz4gZajVQ7Izp6Giul8U8AS+C/JFrK1fqjkkR6F7LecC7O+7IIKNENEUEYbJE4poMq0mK+Pu+Z61+YxJv3qeMMcesiGNixDFZyzH7iGN2dn747FPCa1lr8ezFGNO/+jVAHPM94udeHFC7L0RjVfT/ZjdA+L2H/qcoBoz+51oGCD8a1/+k0YDhlzp6n/0KFbHyckeb03gBRnnJo839iB0YLqPFjZUdN/PKTPo7RAFG/1tdAUb/e3bxq1/7fz7IRxja/xfF7BxI638HRfxgSzHgX1saHVEr4yXAAAAAAElFTkSuQmCC;" vertex="1" parent="1">
          <mxGeometry x="220" y="520" width="50" height="50" as="geometry" />
        </mxCell>
      </root>
    </mxGraphModel>
  </diagram>
</mxfile>
